<?xml version="1.0" encoding="utf-8"?>
<!-- Generator: Adobe Illustrator 16.0.0, SVG Export Plug-In . SVG Version: 6.00 Build 0)  -->
<!DOCTYPE svg PUBLIC "-//W3C//DTD SVG 1.1//EN" "http://www.w3.org/Graphics/SVG/1.1/DTD/svg11.dtd">
<svg version="1.1" xmlns="http://www.w3.org/2000/svg" xmlns:xlink="http://www.w3.org/1999/xlink" x="0px" y="0px" width="300px"
	 height="300px" viewBox="0 0 300 300" enable-background="new 0 0 300 300" xml:space="preserve">
<g id="Слой_1" xmlns:dc="http://purl.org/dc/elements/1.1/" xmlns:cc="http://creativecommons.org/ns#" xmlns:rdf="http://www.w3.org/1999/02/22-rdf-syntax-ns#" xmlns:svg="http://www.w3.org/2000/svg" xmlns:sodipodi="http://sodipodi.sourceforge.net/DTD/sodipodi-0.dtd" xmlns:inkscape="http://www.inkscape.org/namespaces/inkscape" inkscape:version="0.91 r13725" sodipodi:docname="YouTube_social_white_squircle_(2017).svg">
	
		<sodipodi:namedview  id="namedview13" pagecolor="#ffffff" bordercolor="#666666" borderopacity="1" objecttolerance="10" gridtolerance="10" guidetolerance="10" showgrid="false" inkscape:zoom="1.18" inkscape:cx="140.1615" inkscape:cy="129.72071" fit-margin-top="0" fit-margin-left="0" inkscape:pageopacity="0" inkscape:pageshadow="2" inkscape:window-width="1366" inkscape:window-height="715" inkscape:window-x="-8" inkscape:window-y="-8" inkscape:window-maximized="1" inkscape:current-layer="Слой_1" fit-margin-right="0" fit-margin-bottom="0">
		</sodipodi:namedview>
	<path fill="#ffffff" d="M280.422,88.743c-3.028-11.604-12.277-20.854-23.883-23.882c-21.355-5.885-106.625-5.885-106.625-5.885
		s-85.098,0-106.46,5.549c-11.433,3.193-20.854,12.614-24.047,24.218c-5.548,21.362-5.548,65.59-5.548,65.59s0,44.399,5.548,65.425
		c3.193,11.604,12.443,20.854,24.047,24.047c21.527,5.72,106.46,5.72,106.46,5.72s85.269,0,106.625-5.548
		c11.605-3.199,20.854-12.277,23.883-24.048c5.72-21.19,5.72-65.425,5.72-65.425S286.313,110.104,280.422,88.743z M122.839,195.037
		v-81.568l70.801,40.87L122.839,195.037z"/>
</g>
<g id="Layer_2">
	<polygon fill-opacity="0" points="122.839,195.037 193.641,154.339 122.839,113.469 	"/>
</g>
</svg>
