<?xml version="1.0" encoding="utf-8"?>
<!-- Generator: Adobe Illustrator 16.0.0, SVG Export Plug-In . SVG Version: 6.00 Build 0)  -->
<!DOCTYPE svg PUBLIC "-//W3C//DTD SVG 1.1//EN" "http://www.w3.org/Graphics/SVG/1.1/DTD/svg11.dtd">
<svg version="1.1" id="Layer_1" xmlns="http://www.w3.org/2000/svg" xmlns:xlink="http://www.w3.org/1999/xlink" x="0px" y="0px"
	 width="1603px" height="804px" viewBox="0 0 1603 804" enable-background="new 0 0 1603 804" xml:space="preserve">
<g>
	<path fill-rule="evenodd" clip-rule="evenodd" fill-opacity="0.0" d="M1602.75,804.851c-534.616,0-1069.183,0-1603.701,0
		c0-268.316,0-536.583,0-804.802c534.616,0,1069.183,0,1603.701,0C1602.75,268.365,1602.75,536.632,1602.75,804.851z
		 M539.43,196.586c28.644-42.101,57.115-83.952,85.612-125.84c-0.8-0.72-1.242-1.233-1.787-1.589
		c-22.323-14.603-45.597-27.397-70.297-37.584c-47.1-19.427-96.124-29.603-147.019-30.418c-22.015-0.353-44.035,0.82-65.706,4.987
		c-18.454,3.548-36.993,7.067-55.053,12.167c-30.14,8.513-58.66,21.172-85.772,36.949c-28.232,16.427-54.47,35.64-77.479,58.746
		c-15.043,15.108-29.069,31.386-42.221,48.183c-19.009,24.277-34.183,51.068-46.32,79.428
		c-12.156,28.402-21.133,57.783-26.638,88.284c-3.794,21.02-6.105,42.176-6.424,63.416c-0.26,17.34,1.15,34.774,2.903,52.056
		c1.521,14.99,3.686,30.029,7.104,44.688c8.378,35.934,21.219,70.253,39.041,102.702c16.853,30.685,37.39,58.633,61.279,84.1
		c16.478,17.565,34.763,33.204,54.279,47.319c24.727,17.883,51.028,33.122,79.108,45.106c24.188,10.323,49.239,18.179,75.008,23.393
		c26.902,5.443,54.112,8.59,81.632,8.118c6.791-0.117,13.607-0.291,20.355-0.986c18.199-1.874,36.516-3.187,54.516-6.289
		c30.144-5.193,58.935-15.202,86.942-27.437c43.4-18.959,82.013-45.154,115.673-78.329c13.54-13.345,25.969-27.938,37.888-42.778
		c23.729-29.548,41.971-62.401,55.731-97.693c11.834-30.348,20.473-61.553,24.039-94.029c0.385-3.504,2.046-4.48,5.538-4.465
		c31.161,0.139,62.322,0.081,93.484,0.081c1.151,0,2.304,0,3.443,0c11.795,38.073,23.508,75.887,34.958,112.851
		c1.839-2.979,4.116-6.366,6.096-9.92c18.25-32.772,36.477-65.557,54.616-98.39c1.787-3.235,3.799-4.663,7.77-4.649
		c48.991,0.166,97.983,0.105,146.975,0.118c1.611,0.001,3.222,0.15,5.054,0.242c0.066,1.477,0.161,2.611,0.161,3.746
		c0.008,38.326-0.258,76.656,0.144,114.979c0.15,14.349,1.381,28.733,2.948,43.012c2.553,23.242,10.278,45.06,20.465,65.952
		c8.775,17.998,20.107,34.424,33.425,49.367c4.011,4.501,8.543,9.287,13.854,11.737c15.023,6.937,30.582,12.712,45.915,18.979
		c31.987,13.076,63.934,26.254,95.979,39.187c5.246,2.117,10.957,4.605,16.379,4.442c11.134-0.335,22.268-2.027,33.312-3.735
		c29.106-4.501,55.764-15.601,80.665-31.046c20.154-12.502,37.625-28.226,52.663-46.468c13.341-16.182,24.263-33.981,32.543-53.339
		c9.298-21.736,15.297-44.373,17.341-67.872c1-11.5,0.867-23.212-0.005-34.732c-0.966-12.735-2.256-25.637-5.333-37.985
		c-13.016-52.255-40.672-95.244-84.192-127.308c-11.815-8.707-24.412-16.944-37.782-22.819
		c-22.32-9.808-45.533-17.591-68.404-26.134c-50.732-18.95-101.461-37.903-152.272-56.636c-3.904-1.439-3.82-3.705-3.819-6.79
		c0.034-92.651,0.028-185.302,0.028-277.952c0-2.101,0-4.201,0-6.105c-0.955-0.287-1.263-0.459-1.569-0.459
		c-29.828-0.032-59.655-0.113-89.481,0.077c-1.873,0.012-4.354,1.714-5.494,3.361c-5.898,8.524-11.333,17.368-17.146,25.953
		c-38.639,57.055-77.355,114.057-115.926,171.158c-1.632,2.415-2.743,2.447-5.158,1.488c-9.603-3.812-19.359-7.238-28.933-11.118
		c-1.976-0.8-4.211-2.605-4.979-4.493c-15.885-39.104-31.55-78.295-47.332-117.44c-2.139-5.304-3.661-11.292-7.196-15.52
		c-12.117-14.486-26.989-25.827-43.768-34.53c-28.483-14.774-58.565-21.274-90.748-18.14c-16.049,1.563-31.45,5.222-46.305,11.213
		c-27.655,11.153-50.261,29.04-68.099,52.803c-20.41,27.19-31.94,57.975-32.443,91.936c-0.776,52.48-0.209,104.979-0.19,157.47
		c0.001,2.524,0.063,4.543-2.893,6.069c-19.459,10.045-38.741,20.43-58.185,30.502c-2.499,1.294-5.599,2.001-8.422,2.007
		c-55.824,0.114-111.647,0.085-167.472,0.085c-1.921,0-3.842,0-5.697,0c0,31.987,0,63.232,0,94.845c2.276,0,4.249,0,6.221,0
		c60.157,0,120.313,0.067,180.469-0.097c6.615-0.018,12.559,1.021,18.456,4.16c10.562,5.621,21.422,10.679,32.104,15.945
		C608.853,570.518,519.43,641.562,416.472,647.729c-114.081,6.834-213.054-59.892-250.162-165.604
		c-33.415-95.194-7.111-210.76,87.71-280.759C334.631,141.858,449.305,135.46,539.43,196.586z M778.821,780.42
		c-0.197,11.853,9.052,21.456,20.774,21.567c11.242,0.107,21.034-9.537,21.204-20.884c0.168-11.263-8.992-20.969-20.035-21.226
		C788.066,759.582,779.027,768.044,778.821,780.42z"/>
	<path fill-rule="evenodd" clip-rule="evenodd" fill="#000000" d="M539.43,196.586c-90.125-61.126-204.798-54.729-285.41,4.78
		c-94.821,69.999-121.125,185.564-87.71,280.759c37.108,105.713,136.081,172.438,250.162,165.604
		c102.958-6.168,192.381-77.212,221.114-178.849c-10.682-5.267-21.542-10.324-32.104-15.945c-5.897-3.139-11.841-4.178-18.456-4.16
		c-60.156,0.164-120.312,0.097-180.469,0.097c-1.972,0-3.945,0-6.221,0c0-31.613,0-62.858,0-94.845c1.854,0,3.776,0,5.697,0
		c55.824,0,111.648,0.029,167.472-0.085c2.823-0.006,5.924-0.713,8.422-2.007c19.444-10.072,38.726-20.458,58.185-30.502
		c2.956-1.526,2.894-3.545,2.893-6.069c-0.019-52.491-0.585-104.99,0.19-157.47c0.503-33.96,12.033-64.746,32.443-91.936
		c17.838-23.764,40.444-41.65,68.099-52.803c14.855-5.991,30.256-9.65,46.305-11.213c32.182-3.134,62.264,3.366,90.748,18.14
		c16.778,8.703,31.65,20.044,43.768,34.53c3.535,4.227,5.058,10.215,7.196,15.52c15.782,39.146,31.447,78.337,47.332,117.44
		c0.768,1.888,3.003,3.693,4.979,4.493c9.573,3.88,19.33,7.306,28.933,11.118c2.415,0.958,3.526,0.926,5.158-1.488
		c38.57-57.101,77.287-114.103,115.926-171.158c5.813-8.585,11.248-17.429,17.146-25.953c1.141-1.647,3.621-3.35,5.494-3.361
		c29.826-0.19,59.653-0.109,89.481-0.077c0.307,0,0.614,0.173,1.569,0.459c0,1.904,0,4.004,0,6.105
		c0,92.65,0.006,185.301-0.028,277.952c-0.001,3.085-0.085,5.35,3.819,6.79c50.812,18.733,101.54,37.687,152.272,56.636
		c22.871,8.543,46.084,16.326,68.404,26.134c13.37,5.875,25.967,14.112,37.782,22.819c43.521,32.063,71.177,75.053,84.192,127.308
		c3.077,12.349,4.367,25.25,5.333,37.985c0.872,11.521,1.005,23.232,0.005,34.732c-2.044,23.499-8.043,46.136-17.341,67.872
		c-8.28,19.357-19.202,37.157-32.543,53.339c-15.038,18.242-32.509,33.966-52.663,46.468
		c-24.901,15.445-51.559,26.545-80.665,31.046c-11.044,1.708-22.178,3.4-33.312,3.735c-5.422,0.163-11.133-2.325-16.379-4.442
		c-32.046-12.933-63.992-26.11-95.979-39.187c-15.333-6.268-30.892-12.043-45.915-18.979c-5.312-2.45-9.844-7.236-13.854-11.737
		c-13.317-14.943-24.649-31.369-33.425-49.367c-10.187-20.893-17.912-42.71-20.465-65.952c-1.567-14.278-2.798-28.663-2.948-43.012
		c-0.401-38.322-0.136-76.652-0.144-114.979c0-1.135-0.095-2.27-0.161-3.746c-1.832-0.092-3.442-0.241-5.054-0.242
		c-48.991-0.013-97.983,0.048-146.975-0.118c-3.971-0.014-5.982,1.414-7.77,4.649c-18.14,32.833-36.366,65.617-54.616,98.39
		c-1.979,3.554-4.257,6.941-6.096,9.92c-11.45-36.964-23.163-74.777-34.958-112.851c-1.14,0-2.292,0-3.443,0
		c-31.162,0-62.323,0.058-93.484-0.081c-3.492-0.016-5.153,0.961-5.538,4.465c-3.566,32.477-12.205,63.682-24.039,94.029
		c-13.761,35.292-32.002,68.146-55.731,97.693c-11.918,14.841-24.348,29.434-37.888,42.778
		c-33.66,33.175-72.272,59.37-115.673,78.329c-28.008,12.234-56.798,22.243-86.942,27.437c-18,3.103-36.316,4.415-54.516,6.289
		c-6.749,0.695-13.565,0.869-20.355,0.986c-27.52,0.472-54.729-2.675-81.632-8.118c-25.769-5.214-50.821-13.069-75.008-23.393
		c-28.08-11.984-54.381-27.224-79.108-45.106c-19.516-14.115-37.802-29.754-54.279-47.319c-23.889-25.467-44.426-53.415-61.279-84.1
		c-17.822-32.449-30.663-66.769-39.041-102.702C6.916,475.4,4.75,460.361,3.23,445.371c-1.753-17.282-3.164-34.716-2.903-52.056
		c0.318-21.24,2.63-42.396,6.424-63.416c5.505-30.501,14.482-59.881,26.638-88.284c12.137-28.36,27.311-55.15,46.32-79.428
		c13.151-16.797,27.177-33.075,42.221-48.183c23.009-23.106,49.247-42.319,77.479-58.746c27.112-15.776,55.633-28.436,85.772-36.949
		c18.06-5.1,36.599-8.619,55.053-12.167c21.67-4.167,43.691-5.34,65.706-4.987c50.896,0.815,99.919,10.991,147.019,30.418
		c24.7,10.187,47.974,22.981,70.297,37.584c0.544,0.355,0.987,0.869,1.787,1.589C596.545,112.634,568.073,154.485,539.43,196.586z
		 M1247.772,553.339c0,9.161-0.278,18.334,0.089,27.479c0.284,7.076,0.706,14.267,2.221,21.151
		c8.664,39.394,30.249,69.548,65.926,88.761c27.393,14.753,56.605,18.951,87.217,12.459c29.489-6.255,53.796-20.943,73.1-44.118
		c17.781-21.348,27.221-46.046,29.441-73.482c1.11-13.723-0.234-27.428-3.896-40.786c-10.761-39.258-34.505-67.713-71.288-85.162
		c-1.969-0.935-4.826-1.288-6.848-0.626c-27.966,9.165-55.857,18.557-83.767,27.892c-29.397,9.83-58.773,19.729-88.225,29.394
		c-3.157,1.037-4.077,2.436-4.03,5.56C1247.87,532.351,1247.772,542.845,1247.772,553.339z M869.855,353.743
		c-0.056-0.938,0.031-1.621-0.149-2.222c-4.607-15.337-9.274-30.655-13.868-45.996c-14.638-48.889-29.237-97.789-43.934-146.66
		c-0.43-1.429-1.601-3.453-2.736-3.687c-2.71-0.558-6.429-1.3-8.215,0.05c-2.188,1.652-3.949,5.358-3.959,8.185
		c-0.217,61.981-0.167,123.965-0.154,185.947c0,1.44,0.183,2.881,0.284,4.383C821.546,353.743,845.617,353.743,869.855,353.743z
		 M1153.74,255.426c-12.138-4.533-24.311-8.911-36.331-13.674c-3.32-1.316-4.778-0.433-6.205,2.405
		c-1.921,3.821-4.131,7.496-6.217,11.233c-15.075,27-30.149,54.002-45.227,81.003c-3.193,5.718-6.393,11.433-9.681,17.312
		c34.993,0,69.234,0,103.66,0C1153.74,320.777,1153.74,288.174,1153.74,255.426z"/>
	<path fill-rule="evenodd" clip-rule="evenodd" fill="#000000" d="M778.821,780.42c0.207-12.376,9.246-20.838,21.943-20.542
		c11.043,0.257,20.203,9.963,20.035,21.226c-0.17,11.347-9.962,20.991-21.204,20.884
		C787.873,801.876,778.624,792.272,778.821,780.42z"/>
	<path fill-rule="evenodd" clip-rule="evenodd" fill-opacity="0.0" d="M1247.772,553.339c0-10.494,0.098-20.988-0.061-31.479
		c-0.047-3.124,0.873-4.522,4.03-5.56c29.451-9.665,58.827-19.563,88.225-29.394c27.909-9.335,55.801-18.727,83.767-27.892
		c2.021-0.662,4.879-0.309,6.848,0.626c36.783,17.449,60.527,45.904,71.288,85.162c3.662,13.358,5.007,27.063,3.896,40.786
		c-2.221,27.437-11.66,52.135-29.441,73.482c-19.304,23.175-43.61,37.863-73.1,44.118c-30.611,6.492-59.824,2.294-87.217-12.459
		c-35.677-19.213-57.262-49.367-65.926-88.761c-1.515-6.885-1.937-14.075-2.221-21.151
		C1247.494,571.673,1247.772,562.5,1247.772,553.339z"/>
	<path fill-rule="evenodd" clip-rule="evenodd" fill-opacity="0.0" d="M869.855,353.743c-24.238,0-48.31,0-72.731,0
		c-0.101-1.502-0.283-2.943-0.284-4.383c-0.014-61.982-0.063-123.966,0.154-185.947c0.01-2.826,1.771-6.532,3.959-8.185
		c1.786-1.35,5.505-0.607,8.215-0.05c1.136,0.234,2.307,2.258,2.736,3.687c14.696,48.871,29.296,97.771,43.934,146.66
		c4.594,15.341,9.261,30.659,13.868,45.996C869.887,352.122,869.8,352.805,869.855,353.743z"/>
	<path fill-rule="evenodd" clip-rule="evenodd" fill-opacity="0.0" d="M1153.74,255.426c0,32.748,0,65.352,0,98.279
		c-34.426,0-68.667,0-103.66,0c3.288-5.879,6.487-11.594,9.681-17.312c15.077-27.001,30.151-54.002,45.227-81.003
		c2.086-3.737,4.296-7.412,6.217-11.233c1.427-2.837,2.885-3.721,6.205-2.405C1129.43,246.515,1141.603,250.893,1153.74,255.426z"/>
</g>
</svg>
